<mxfile host="app.diagrams.net" modified="2024-04-27T03:46:17.816Z" agent="Mozilla/5.0 (Windows NT 10.0; Win64; x64) AppleWebKit/537.36 (KHTML, like Gecko) Chrome/124.0.0.0 Safari/537.36" version="23.1.7" etag="UrR7OmhEAygODNB-8rs5" type="github">
  <diagram name="第 1 页" id="D3wv8KndqMryqiPn_AbC">
    <mxGraphModel>
      <root>
        <mxCell id="0" />
        <mxCell id="1" parent="0" />
      </root>
    </mxGraphModel>
  </diagram>
</mxfile>
